<?xml version="1.0" encoding="UTF-8" standalone="no"?>
<svg width="25px" height="22px" viewBox="0 0 25 22" version="1.1" xmlns="http://www.w3.org/2000/svg" xmlns:xlink="http://www.w3.org/1999/xlink" xmlns:sketch="http://www.bohemiancoding.com/sketch/ns">
    <title>icon-twitter-share</title>
    <description>Created with Sketch (http://www.bohemiancoding.com/sketch)</description>
    <defs></defs>
    <g id="Page-1" stroke="none" stroke-width="1" fill="none" fill-rule="evenodd" sketch:type="MSPage">
        <path d="M25,3.0735194 C24.0802184,3.49502388 23.0916869,3.77993433 22.0541869,3.90787761 C23.1129854,3.25211343 23.9263956,2.21377313 24.309284,0.976402985 C23.3182039,1.58364776 22.2205704,2.02458507 21.0522451,2.26216716 C20.1166869,1.23235224 18.7836772,0.589 17.3084345,0.589 C13.9977549,0.589 11.564017,3.78074925 12.3122573,7.09505075 C8.04951456,6.87414328 4.27014563,4.76455224 1.7404733,1.55894925 C0.39690534,3.93997313 1.04356796,7.05599701 3.32773058,8.63312836 C2.48707524,8.60567164 1.69599515,8.36727463 1.00461165,7.9702806 C0.948968447,10.4252119 2.65182039,12.7207313 5.11838592,13.2327552 C4.39654126,13.4356716 3.60588592,13.4821224 2.80224515,13.3234627 C3.45479369,15.4284776 5.34908981,16.9604119 7.59350728,17.0031015 C5.43713592,18.7488597 2.72123786,19.5286179 0,19.1973194 C2.26978155,20.7006687 4.96583738,21.5779672 7.86231796,21.5779672 C17.3848908,21.5779672 22.7649272,13.2688 22.4406553,5.81637015 C23.4429005,5.06933433 24.3123786,4.1361194 25,3.0735194 L25,3.0735194 Z" id="twitter-icon" fill="#000000" sketch:type="MSShapeGroup"></path>
    </g>
</svg>