<?xml version="1.0" encoding="UTF-8" standalone="no"?>
<svg width="413px" height="412px" viewBox="0 0 413 412" version="1.1" xmlns="http://www.w3.org/2000/svg" xmlns:xlink="http://www.w3.org/1999/xlink" xmlns:sketch="http://www.bohemiancoding.com/sketch/ns">
    <defs></defs>
    <g id="Page-1" stroke="none" stroke-width="1" fill="none" fill-rule="evenodd" sketch:type="MSPage">
        <path d="M206.417,0 C92.646,0 0.417,92.229 0.417,206 C0.417,319.771 92.646,412 206.417,412 C320.188,412 412.417,319.771 412.417,206 C412.417,92.229 320.188,0 206.417,0 L206.417,0 Z M267.385,121.192 L238.596,121.192 C228.434,121.192 226.316,125.355 226.316,135.87 L226.316,161.274 L267.385,161.274 L263.434,205.87 L226.316,205.87 L226.316,339.097 L173.116,339.097 L173.116,206.435 L145.45,206.435 L145.45,161.275 L173.116,161.275 L173.116,125.71 C173.116,92.331 190.965,74.903 230.553,74.903 L267.386,74.903 L267.386,121.192 L267.385,121.192 Z" id="facebook-circle-icon" fill="#FFFFFF" sketch:type="MSShapeGroup"></path>
    </g>
</svg>