<?xml version="1.0" encoding="UTF-8" standalone="no"?>
<svg width="412px" height="412px" viewBox="0 0 412 412" version="1.1" xmlns="http://www.w3.org/2000/svg" xmlns:xlink="http://www.w3.org/1999/xlink" xmlns:sketch="http://www.bohemiancoding.com/sketch/ns">
    <defs></defs>
    <g id="Page-1" stroke="none" stroke-width="1" fill="none" fill-rule="evenodd" sketch:type="MSPage">
        <path d="M162.551,205.995 C162.551,181.445 182.45,161.552 207,161.552 C231.549,161.552 251.453,181.446 251.453,205.995 C251.453,230.542 231.549,250.449 207,250.449 C182.45,250.449 162.551,230.542 162.551,205.995 L162.551,205.995 Z M278.113,205.995 C278.113,245.278 246.275,277.115 207,277.115 C167.726,277.115 135.887,245.278 135.887,205.995 C135.887,199.849 136.756,193.903 138.222,188.212 L118.099,188.212 L118.099,286.005 C118.099,290.909 122.08,294.886 126.997,294.886 L287.005,294.886 C291.922,294.886 295.904,290.909 295.904,286.005 L295.904,188.212 L275.781,188.212 C277.248,193.903 278.113,199.849 278.113,205.995 L278.113,205.995 Z M287.005,117.1 L260.342,117.1 C255.431,117.1 251.453,121.081 251.453,125.99 L251.453,152.662 C251.453,157.568 255.431,161.553 260.342,161.553 L287.005,161.553 C291.922,161.553 295.904,157.569 295.904,152.662 L295.904,125.99 C295.904,121.081 291.922,117.1 287.005,117.1 L287.005,117.1 Z M412,206 C412,319.771 319.771,412 206,412 C92.229,412 0,319.771 0,206 C0,92.229 92.229,0 206,0 C319.771,0 412,92.229 412,206 L412,206 Z M322.566,117.1 C322.566,102.371 310.63,90.435 295.904,90.435 L118.099,90.435 C103.375,90.435 91.435,102.371 91.435,117.1 L91.435,294.886 C91.435,309.622 103.375,321.566 118.099,321.566 L295.905,321.566 C310.632,321.566 322.567,309.623 322.567,294.886 L322.567,117.1 L322.566,117.1 Z" id="instagram-9-icon" fill="#FFFFFF" sketch:type="MSShapeGroup"></path>
    </g>
</svg>