<?xml version="1.0" encoding="utf-8"?>
<!-- Generator: Adobe Illustrator 18.0.0, SVG Export Plug-In . SVG Version: 6.00 Build 0)  -->
<!DOCTYPE svg PUBLIC "-//W3C//DTD SVG 1.1//EN" "http://www.w3.org/Graphics/SVG/1.1/DTD/svg11.dtd">
<svg version="1.1" id="Слой_1" xmlns:sketch="http://www.bohemiancoding.com/sketch/ns"
	 xmlns="http://www.w3.org/2000/svg" xmlns:xlink="http://www.w3.org/1999/xlink" x="0px" y="0px" viewBox="0 0 412 412"
	 enable-background="new 0 0 412 412" xml:space="preserve">
<title>Untitled 6</title>
<description>Created with Sketch (http://www.bohemiancoding.com/sketch)</description>
<g id="Page-1" sketch:type="MSPage">
	<path fill="#FFFFFF" d="M206,0C92.2,0,0,92.2,0,206s92.2,206,206,206s206-92.2,206-206S319.8,0,206,0z M332.1,284.5l-37.9,0.5
		c0,0-8.2,1.6-18.9-5.8c-14.2-9.7-27.6-35.1-38-31.7c-10.6,3.4-10.2,26.1-10.2,26.1s0.1,4.9-2.3,7.5c-2.6,2.8-7.7,3.4-7.7,3.4h-17
		c0,0-37.5,2.3-70.4-32.1c-36-37.5-67.7-111.8-67.7-111.8s-1.8-4.9,0.2-7.2c2.2-2.6,8.3-2.8,8.3-2.8l40.6-0.3c0,0,3.8,0.6,6.6,2.6
		c2.3,1.7,3.5,4.8,3.5,4.8s6.6,16.6,15.2,31.6c17,29.3,24.8,35.7,30.6,32.6c8.4-4.6,5.9-41.4,5.9-41.4s0.2-13.4-4.2-19.3
		c-3.4-4.6-9.8-6-12.6-6.3c-2.3-0.3,1.5-5.6,6.3-8c7.3-3.6,20.2-3.8,35.4-3.6c11.9,0.1,15.3,0.9,19.9,2c14,3.4,9.2,16.4,9.2,47.7
		c0,10-1.8,24.1,5.4,28.8c3.1,2,10.7,0.3,29.7-32c9-15.3,15.8-33.3,15.8-33.3s1.5-3.2,3.8-4.6c2.3-1.4,5.5-1,5.5-1l42.7-0.3
		c0,0,12.8-1.5,14.9,4.3c2.2,6.1-4.8,20.3-22.2,43.5c-28.6,38.2-31.8,34.6-8.1,56.7c22.7,21.1,27.4,31.4,28.2,32.6
		C352,283.3,332.1,284.5,332.1,284.5z"/>
</g>
</svg>
