<?xml version="1.0" encoding="UTF-8" standalone="no"?>
<svg width="17px" height="18px" viewBox="0 0 17 18" version="1.1" xmlns="http://www.w3.org/2000/svg" xmlns:xlink="http://www.w3.org/1999/xlink" xmlns:sketch="http://www.bohemiancoding.com/sketch/ns">
    <title>icon-calendar</title>
    <description>Created with Sketch (http://www.bohemiancoding.com/sketch)</description>
    <defs></defs>
    <g id="Page-1" stroke="none" stroke-width="1" fill="none" fill-rule="evenodd" sketch:type="MSPage">
        <path d="M9.69085139,2.87107524 L9.69085139,0.984199029 C9.69085139,0.570133495 10.0187506,0.234466019 10.4231839,0.234466019 C10.8276171,0.234466019 11.1554761,0.570133495 11.1554761,0.984199029 L11.1554761,2.87107524 C11.1554761,3.28514078 10.8276171,3.62080825 10.4231839,3.62080825 C10.0187506,3.62080825 9.69085139,3.28514078 9.69085139,2.87107524 L9.69085139,2.87107524 Z M3.87406549,3.61742476 C4.27845844,3.61742476 4.60635768,3.28167476 4.60635768,2.86760922 L4.60635768,0.980815534 C4.60635768,0.56675 4.27845844,0.231 3.87406549,0.231 C3.46959194,0.231 3.141733,0.56675 3.141733,0.980815534 L3.141733,2.86760922 C3.141733,3.28167476 3.46959194,3.61742476 3.87406549,3.61742476 L3.87406549,3.61742476 Z M15.0894207,3.41012379 L15.0894207,15.7612015 L1.87027708,15.7612015 L1.87027708,17.2118956 L16.5,17.2118956 L16.5,3.41012379 L15.0894207,3.41012379 L15.0894207,3.41012379 Z M13.7594458,14.4534806 L0.5,14.4534806 L0.5,2.0755 L2.25657431,2.0755 L2.25657431,2.84021117 C2.25657431,3.7533835 2.98217632,4.49626699 3.87406549,4.49626699 C4.76591436,4.49626699 5.49151637,3.7533835 5.49151637,2.84021117 L5.49151637,2.0755 L8.8056927,2.0755 L8.8056927,2.84367718 C8.8056927,3.75676699 9.53129471,4.49965049 10.4231839,4.49965049 C11.3150327,4.49965049 12.0406348,3.75676699 12.0406348,2.84367718 L12.0406348,2.0755 L13.7594458,2.0755 L13.7594458,14.4534806 L13.7594458,14.4534806 Z M4.96678086,9.88766019 L2.89322922,9.88766019 L2.89322922,12.0107209 L4.96678086,12.0107209 L4.96678086,9.88766019 L4.96678086,9.88766019 Z M4.96678086,6.70564806 L2.89322922,6.70564806 L2.89322922,8.82862621 L4.96678086,8.82862621 L4.96678086,6.70564806 L4.96678086,6.70564806 Z M8.18036272,9.88766019 L6.10681108,9.88766019 L6.10681108,12.0107209 L8.18036272,12.0107209 L8.18036272,9.88766019 L8.18036272,9.88766019 Z M8.18036272,6.70564806 L6.10681108,6.70564806 L6.10681108,8.82862621 L8.18036272,8.82862621 L8.18036272,6.70564806 L8.18036272,6.70564806 Z M11.3939446,9.88766019 L9.32043325,9.88766019 L9.32043325,12.0107209 L11.3939446,12.0107209 L11.3939446,9.88766019 L11.3939446,9.88766019 Z M11.3940252,6.70564806 L9.32043325,6.70564806 L9.32043325,8.82862621 L11.3940252,8.82862621 L11.3940252,6.70564806 L11.3940252,6.70564806 Z" id="calendar-8-icon" fill="#999999" sketch:type="MSShapeGroup"></path>
    </g>
</svg>