<?xml version="1.0" encoding="UTF-8" standalone="no"?>
<svg width="25px" height="25px" viewBox="0 0 25 25" version="1.1" xmlns="http://www.w3.org/2000/svg" xmlns:xlink="http://www.w3.org/1999/xlink" xmlns:sketch="http://www.bohemiancoding.com/sketch/ns">
    <title>Untitled 4</title>
    <description>Created with Sketch (http://www.bohemiancoding.com/sketch)</description>
    <defs></defs>
    <g id="Page-1" stroke="none" stroke-width="1" fill="none" fill-rule="evenodd" sketch:type="MSPage">
        <g id="google-plus-icon" sketch:type="MSLayerGroup" fill="#000000">
            <path d="M25,5.40513614 L21.6856189,5.40513614 L21.6856189,8.7852104 L20.0283981,8.7852104 L20.0283981,5.40513614 L16.7139563,5.40513614 L16.7139563,3.71509901 L20.0283981,3.71509901 L20.0283981,0.335148515 L21.6856189,0.335148515 L21.6856189,3.71516089 L25,3.71516089 L25,5.40513614 L25,5.40513614 Z M15.6300364,19.384901 C15.6300364,21.9185025 13.3615898,25.0029084 7.65467233,25.0029084 C3.48088592,25.0029084 0,23.1670173 0,20.0790842 C0,17.6957921 1.47955097,14.6019183 8.39338592,14.6019183 C7.36656553,13.748453 7.11456311,12.5550743 7.74211165,11.2628713 C3.69393204,11.2628713 1.62081311,8.83576733 1.62081311,5.75402228 C1.62081311,2.7384901 3.81996359,-0.00290841584 8.30467233,-0.00290841584 L15.489017,-0.00290841584 L13.8836165,1.71553218 L11.9977549,1.71553218 C13.3281553,2.49288366 14.0357403,4.09381188 14.0357403,5.85841584 C14.0357403,7.47815594 13.161165,8.79003713 11.9129854,9.77419554 C9.69799757,11.5206064 10.2650485,12.4957302 12.5857403,14.2217203 C14.8738471,15.9699257 15.6300364,17.3194307 15.6300364,19.384901 L15.6300364,19.384901 Z M11.1491505,5.96862624 C10.8150485,3.37549505 9.15849515,1.24808168 7.22293689,1.18873762 C5.28671117,1.13001238 3.98816748,3.11441832 4.32257282,5.7082302 C4.6568568,8.30136139 6.49696602,10.1128094 8.43355583,10.1722772 C10.3690534,10.2310025 11.4831311,8.56206683 11.1491505,5.96862624 L11.1491505,5.96862624 Z M13.145085,19.6449876 C13.145085,17.5121906 11.2372573,15.4793317 8.03634709,15.4793317 C5.15151699,15.4469678 2.70673544,17.3383663 2.70673544,19.530755 C2.70673544,21.7680074 4.7901699,23.6303837 7.67512136,23.6303837 C11.3632888,23.6303218 13.145085,21.8822401 13.145085,19.6449876 L13.145085,19.6449876 Z" id="Shape" sketch:type="MSShapeGroup"></path>
        </g>
    </g>
</svg>